<mxfile host="Electron" modified="2023-12-23T17:47:28.897Z" agent="Mozilla/5.0 (Windows NT 10.0; Win64; x64) AppleWebKit/537.36 (KHTML, like Gecko) draw.io/22.1.11 Chrome/114.0.5735.289 Electron/25.9.8 Safari/537.36" etag="IzCdHEGWSUxbZE02yz7w" version="22.1.11" type="device">
  <diagram name="Page-1" id="TfQgq6B5Ucdq4LB7p_xn">
    <mxGraphModel dx="1770" dy="1563" grid="1" gridSize="10" guides="1" tooltips="1" connect="1" arrows="1" fold="1" page="1" pageScale="1" pageWidth="850" pageHeight="1100" math="0" shadow="0">
      <root>
        <mxCell id="0" />
        <mxCell id="1" parent="0" />
        <mxCell id="uYBO9HUsvajKBL-rS9Ph-4" value="" style="edgeStyle=orthogonalEdgeStyle;rounded=0;orthogonalLoop=1;jettySize=auto;html=1;" parent="1" source="uYBO9HUsvajKBL-rS9Ph-2" target="uYBO9HUsvajKBL-rS9Ph-3" edge="1">
          <mxGeometry relative="1" as="geometry" />
        </mxCell>
        <mxCell id="uYBO9HUsvajKBL-rS9Ph-6" value="" style="edgeStyle=orthogonalEdgeStyle;rounded=0;orthogonalLoop=1;jettySize=auto;html=1;" parent="1" source="uYBO9HUsvajKBL-rS9Ph-2" edge="1">
          <mxGeometry relative="1" as="geometry">
            <mxPoint x="460" y="-655" as="targetPoint" />
          </mxGeometry>
        </mxCell>
        <mxCell id="uYBO9HUsvajKBL-rS9Ph-57" style="edgeStyle=orthogonalEdgeStyle;rounded=0;orthogonalLoop=1;jettySize=auto;html=1;entryX=1;entryY=0.5;entryDx=0;entryDy=0;" parent="1" source="uYBO9HUsvajKBL-rS9Ph-2" target="uYBO9HUsvajKBL-rS9Ph-9" edge="1">
          <mxGeometry relative="1" as="geometry" />
        </mxCell>
        <mxCell id="uYBO9HUsvajKBL-rS9Ph-58" style="edgeStyle=orthogonalEdgeStyle;rounded=0;orthogonalLoop=1;jettySize=auto;html=1;" parent="1" source="uYBO9HUsvajKBL-rS9Ph-2" edge="1">
          <mxGeometry relative="1" as="geometry">
            <mxPoint x="340" y="-490" as="targetPoint" />
          </mxGeometry>
        </mxCell>
        <mxCell id="uYBO9HUsvajKBL-rS9Ph-88" style="edgeStyle=orthogonalEdgeStyle;rounded=0;orthogonalLoop=1;jettySize=auto;html=1;" parent="1" source="uYBO9HUsvajKBL-rS9Ph-2" edge="1">
          <mxGeometry relative="1" as="geometry">
            <mxPoint x="160" y="-647.5" as="targetPoint" />
          </mxGeometry>
        </mxCell>
        <mxCell id="uYBO9HUsvajKBL-rS9Ph-2" value="User:" style="rounded=0;whiteSpace=wrap;html=1;" parent="1" vertex="1">
          <mxGeometry x="310" y="-662.5" width="60" height="30" as="geometry" />
        </mxCell>
        <mxCell id="uYBO9HUsvajKBL-rS9Ph-3" value="UserID" style="ellipse;whiteSpace=wrap;html=1;rounded=0;" parent="1" vertex="1">
          <mxGeometry x="320" y="-770" width="80" height="45" as="geometry" />
        </mxCell>
        <mxCell id="uYBO9HUsvajKBL-rS9Ph-7" value="Username," style="ellipse;whiteSpace=wrap;html=1;rounded=0;" parent="1" vertex="1">
          <mxGeometry x="460" y="-677.5" width="80" height="45" as="geometry" />
        </mxCell>
        <mxCell id="uYBO9HUsvajKBL-rS9Ph-9" value="Email," style="ellipse;whiteSpace=wrap;html=1;rounded=0;" parent="1" vertex="1">
          <mxGeometry x="220" y="-715" width="80" height="45" as="geometry" />
        </mxCell>
        <mxCell id="uYBO9HUsvajKBL-rS9Ph-12" value="" style="endArrow=classic;html=1;rounded=0;exitX=1;exitY=1;exitDx=0;exitDy=0;" parent="1" edge="1">
          <mxGeometry width="50" height="50" relative="1" as="geometry">
            <mxPoint x="370" y="-632.5" as="sourcePoint" />
            <mxPoint x="450" y="-572.5" as="targetPoint" />
          </mxGeometry>
        </mxCell>
        <mxCell id="uYBO9HUsvajKBL-rS9Ph-13" value="Password" style="ellipse;whiteSpace=wrap;html=1;rounded=0;" parent="1" vertex="1">
          <mxGeometry x="435" y="-590" width="80" height="45" as="geometry" />
        </mxCell>
        <mxCell id="uYBO9HUsvajKBL-rS9Ph-14" value="" style="endArrow=none;html=1;rounded=0;" parent="1" edge="1">
          <mxGeometry width="50" height="50" relative="1" as="geometry">
            <mxPoint x="340" y="-740" as="sourcePoint" />
            <mxPoint x="380" y="-740" as="targetPoint" />
          </mxGeometry>
        </mxCell>
        <mxCell id="uYBO9HUsvajKBL-rS9Ph-15" value="" style="edgeStyle=orthogonalEdgeStyle;rounded=0;orthogonalLoop=1;jettySize=auto;html=1;" parent="1" source="uYBO9HUsvajKBL-rS9Ph-18" target="uYBO9HUsvajKBL-rS9Ph-19" edge="1">
          <mxGeometry relative="1" as="geometry" />
        </mxCell>
        <mxCell id="uYBO9HUsvajKBL-rS9Ph-83" value="" style="edgeStyle=orthogonalEdgeStyle;rounded=0;orthogonalLoop=1;jettySize=auto;html=1;" parent="1" source="uYBO9HUsvajKBL-rS9Ph-18" target="uYBO9HUsvajKBL-rS9Ph-82" edge="1">
          <mxGeometry relative="1" as="geometry" />
        </mxCell>
        <mxCell id="uYBO9HUsvajKBL-rS9Ph-87" style="edgeStyle=orthogonalEdgeStyle;rounded=0;orthogonalLoop=1;jettySize=auto;html=1;entryX=0;entryY=0.5;entryDx=0;entryDy=0;" parent="1" source="uYBO9HUsvajKBL-rS9Ph-18" target="uYBO9HUsvajKBL-rS9Ph-89" edge="1">
          <mxGeometry relative="1" as="geometry">
            <mxPoint x="60" y="-655" as="targetPoint" />
          </mxGeometry>
        </mxCell>
        <mxCell id="uYBO9HUsvajKBL-rS9Ph-18" value="Task:" style="rounded=0;whiteSpace=wrap;html=1;" parent="1" vertex="1">
          <mxGeometry x="-90" y="-670" width="60" height="30" as="geometry" />
        </mxCell>
        <mxCell id="uYBO9HUsvajKBL-rS9Ph-19" value="TaskID&amp;nbsp;" style="ellipse;whiteSpace=wrap;html=1;rounded=0;" parent="1" vertex="1">
          <mxGeometry x="-100" y="-770" width="80" height="45" as="geometry" />
        </mxCell>
        <mxCell id="uYBO9HUsvajKBL-rS9Ph-20" value="Title," style="ellipse;whiteSpace=wrap;html=1;rounded=0;" parent="1" vertex="1">
          <mxGeometry x="-10" y="-770" width="80" height="45" as="geometry" />
        </mxCell>
        <mxCell id="uYBO9HUsvajKBL-rS9Ph-21" value="Description," style="ellipse;whiteSpace=wrap;html=1;rounded=0;" parent="1" vertex="1">
          <mxGeometry x="-190" y="-750" width="80" height="45" as="geometry" />
        </mxCell>
        <mxCell id="uYBO9HUsvajKBL-rS9Ph-22" value="" style="endArrow=classic;html=1;rounded=0;exitX=1;exitY=1;exitDx=0;exitDy=0;" parent="1" source="uYBO9HUsvajKBL-rS9Ph-18" edge="1">
          <mxGeometry width="50" height="50" relative="1" as="geometry">
            <mxPoint y="-630" as="sourcePoint" />
            <mxPoint x="50" y="-580" as="targetPoint" />
          </mxGeometry>
        </mxCell>
        <mxCell id="uYBO9HUsvajKBL-rS9Ph-23" value="DueDate" style="ellipse;whiteSpace=wrap;html=1;rounded=0;" parent="1" vertex="1">
          <mxGeometry x="15" y="-580" width="80" height="45" as="geometry" />
        </mxCell>
        <mxCell id="uYBO9HUsvajKBL-rS9Ph-24" value="" style="endArrow=none;html=1;rounded=0;" parent="1" edge="1">
          <mxGeometry width="50" height="50" relative="1" as="geometry">
            <mxPoint x="-80" y="-740" as="sourcePoint" />
            <mxPoint x="-40" y="-740" as="targetPoint" />
          </mxGeometry>
        </mxCell>
        <mxCell id="uYBO9HUsvajKBL-rS9Ph-25" value="" style="endArrow=classic;html=1;rounded=0;" parent="1" edge="1">
          <mxGeometry width="50" height="50" relative="1" as="geometry">
            <mxPoint x="-30" y="-670" as="sourcePoint" />
            <mxPoint x="20" y="-720" as="targetPoint" />
          </mxGeometry>
        </mxCell>
        <mxCell id="uYBO9HUsvajKBL-rS9Ph-26" value="" style="endArrow=classic;html=1;rounded=0;" parent="1" edge="1">
          <mxGeometry width="50" height="50" relative="1" as="geometry">
            <mxPoint x="-90" y="-650" as="sourcePoint" />
            <mxPoint x="-130" y="-650" as="targetPoint" />
          </mxGeometry>
        </mxCell>
        <mxCell id="uYBO9HUsvajKBL-rS9Ph-27" value="Status," style="ellipse;whiteSpace=wrap;html=1;rounded=0;" parent="1" vertex="1">
          <mxGeometry x="-210" y="-670" width="80" height="45" as="geometry" />
        </mxCell>
        <mxCell id="uYBO9HUsvajKBL-rS9Ph-28" value="" style="edgeStyle=orthogonalEdgeStyle;rounded=0;orthogonalLoop=1;jettySize=auto;html=1;" parent="1" target="uYBO9HUsvajKBL-rS9Ph-30" edge="1">
          <mxGeometry relative="1" as="geometry">
            <mxPoint x="-130" y="-267.5" as="sourcePoint" />
          </mxGeometry>
        </mxCell>
        <mxCell id="uYBO9HUsvajKBL-rS9Ph-39" value="" style="edgeStyle=orthogonalEdgeStyle;rounded=0;orthogonalLoop=1;jettySize=auto;html=1;" parent="1" source="uYBO9HUsvajKBL-rS9Ph-29" target="uYBO9HUsvajKBL-rS9Ph-32" edge="1">
          <mxGeometry relative="1" as="geometry" />
        </mxCell>
        <mxCell id="uYBO9HUsvajKBL-rS9Ph-29" value="Assignment:" style="rounded=0;whiteSpace=wrap;html=1;" parent="1" vertex="1">
          <mxGeometry x="-130" y="-267.5" width="80" height="30" as="geometry" />
        </mxCell>
        <mxCell id="uYBO9HUsvajKBL-rS9Ph-30" value="AssignmentID" style="ellipse;whiteSpace=wrap;html=1;rounded=0;" parent="1" vertex="1">
          <mxGeometry x="-190" y="-367.5" width="90" height="45" as="geometry" />
        </mxCell>
        <mxCell id="uYBO9HUsvajKBL-rS9Ph-31" value="AssigneeUserID&amp;nbsp;" style="ellipse;whiteSpace=wrap;html=1;rounded=0;" parent="1" vertex="1">
          <mxGeometry x="-50" y="-367.5" width="90" height="45" as="geometry" />
        </mxCell>
        <mxCell id="uYBO9HUsvajKBL-rS9Ph-32" value="Deadline" style="ellipse;whiteSpace=wrap;html=1;rounded=0;" parent="1" vertex="1">
          <mxGeometry x="-140" y="-197.5" width="80" height="45" as="geometry" />
        </mxCell>
        <mxCell id="uYBO9HUsvajKBL-rS9Ph-33" value="" style="endArrow=classic;html=1;rounded=0;exitX=1;exitY=1;exitDx=0;exitDy=0;" parent="1" source="uYBO9HUsvajKBL-rS9Ph-29" edge="1">
          <mxGeometry width="50" height="50" relative="1" as="geometry">
            <mxPoint x="-40" y="-227.5" as="sourcePoint" />
            <mxPoint x="10" y="-177.5" as="targetPoint" />
          </mxGeometry>
        </mxCell>
        <mxCell id="uYBO9HUsvajKBL-rS9Ph-34" value="AssignerUserID&amp;nbsp;" style="ellipse;whiteSpace=wrap;html=1;rounded=0;" parent="1" vertex="1">
          <mxGeometry x="-25" y="-177.5" width="95" height="45" as="geometry" />
        </mxCell>
        <mxCell id="uYBO9HUsvajKBL-rS9Ph-35" value="" style="endArrow=none;html=1;rounded=0;" parent="1" edge="1">
          <mxGeometry width="50" height="50" relative="1" as="geometry">
            <mxPoint x="-160" y="-337.5" as="sourcePoint" />
            <mxPoint x="-120" y="-337.5" as="targetPoint" />
          </mxGeometry>
        </mxCell>
        <mxCell id="uYBO9HUsvajKBL-rS9Ph-36" value="" style="endArrow=classic;html=1;rounded=0;" parent="1" edge="1">
          <mxGeometry width="50" height="50" relative="1" as="geometry">
            <mxPoint x="-70" y="-267.5" as="sourcePoint" />
            <mxPoint x="-20" y="-317.5" as="targetPoint" />
          </mxGeometry>
        </mxCell>
        <mxCell id="uYBO9HUsvajKBL-rS9Ph-37" value="TaskID&amp;nbsp;" style="ellipse;whiteSpace=wrap;html=1;rounded=0;" parent="1" vertex="1">
          <mxGeometry x="-250" y="-267.5" width="80" height="45" as="geometry" />
        </mxCell>
        <mxCell id="uYBO9HUsvajKBL-rS9Ph-38" style="edgeStyle=orthogonalEdgeStyle;rounded=0;orthogonalLoop=1;jettySize=auto;html=1;entryX=0.875;entryY=0.333;entryDx=0;entryDy=0;entryPerimeter=0;" parent="1" source="uYBO9HUsvajKBL-rS9Ph-29" target="uYBO9HUsvajKBL-rS9Ph-37" edge="1">
          <mxGeometry relative="1" as="geometry" />
        </mxCell>
        <mxCell id="uYBO9HUsvajKBL-rS9Ph-44" style="edgeStyle=orthogonalEdgeStyle;rounded=0;orthogonalLoop=1;jettySize=auto;html=1;" parent="1" source="uYBO9HUsvajKBL-rS9Ph-40" target="uYBO9HUsvajKBL-rS9Ph-42" edge="1">
          <mxGeometry relative="1" as="geometry" />
        </mxCell>
        <mxCell id="uYBO9HUsvajKBL-rS9Ph-45" style="edgeStyle=orthogonalEdgeStyle;rounded=0;orthogonalLoop=1;jettySize=auto;html=1;entryX=0.5;entryY=1;entryDx=0;entryDy=0;" parent="1" source="uYBO9HUsvajKBL-rS9Ph-40" target="uYBO9HUsvajKBL-rS9Ph-41" edge="1">
          <mxGeometry relative="1" as="geometry" />
        </mxCell>
        <mxCell id="uYBO9HUsvajKBL-rS9Ph-46" style="edgeStyle=orthogonalEdgeStyle;rounded=0;orthogonalLoop=1;jettySize=auto;html=1;entryX=0.5;entryY=0;entryDx=0;entryDy=0;" parent="1" source="uYBO9HUsvajKBL-rS9Ph-40" target="uYBO9HUsvajKBL-rS9Ph-43" edge="1">
          <mxGeometry relative="1" as="geometry" />
        </mxCell>
        <mxCell id="uYBO9HUsvajKBL-rS9Ph-70" style="edgeStyle=orthogonalEdgeStyle;rounded=0;orthogonalLoop=1;jettySize=auto;html=1;" parent="1" source="uYBO9HUsvajKBL-rS9Ph-40" edge="1">
          <mxGeometry relative="1" as="geometry">
            <mxPoint x="500" y="-125" as="targetPoint" />
          </mxGeometry>
        </mxCell>
        <mxCell id="uYBO9HUsvajKBL-rS9Ph-40" value="Team:" style="rounded=0;whiteSpace=wrap;html=1;" parent="1" vertex="1">
          <mxGeometry x="610" y="-140" width="60" height="30" as="geometry" />
        </mxCell>
        <mxCell id="uYBO9HUsvajKBL-rS9Ph-41" value="TeamID&amp;nbsp;" style="ellipse;whiteSpace=wrap;html=1;rounded=0;" parent="1" vertex="1">
          <mxGeometry x="600" y="-240" width="80" height="45" as="geometry" />
        </mxCell>
        <mxCell id="uYBO9HUsvajKBL-rS9Ph-42" value="TeamLeadUserID&amp;nbsp;" style="ellipse;whiteSpace=wrap;html=1;rounded=0;" parent="1" vertex="1">
          <mxGeometry x="740" y="-147.5" width="100" height="45" as="geometry" />
        </mxCell>
        <mxCell id="uYBO9HUsvajKBL-rS9Ph-43" value="TeamName" style="ellipse;whiteSpace=wrap;html=1;rounded=0;" parent="1" vertex="1">
          <mxGeometry x="600" y="-70" width="80" height="45" as="geometry" />
        </mxCell>
        <mxCell id="uYBO9HUsvajKBL-rS9Ph-47" value="" style="endArrow=none;html=1;rounded=0;" parent="1" edge="1">
          <mxGeometry width="50" height="50" relative="1" as="geometry">
            <mxPoint x="620" y="-208" as="sourcePoint" />
            <mxPoint x="660" y="-208" as="targetPoint" />
          </mxGeometry>
        </mxCell>
        <mxCell id="uYBO9HUsvajKBL-rS9Ph-48" style="edgeStyle=orthogonalEdgeStyle;rounded=0;orthogonalLoop=1;jettySize=auto;html=1;" parent="1" source="uYBO9HUsvajKBL-rS9Ph-51" target="uYBO9HUsvajKBL-rS9Ph-53" edge="1">
          <mxGeometry relative="1" as="geometry" />
        </mxCell>
        <mxCell id="uYBO9HUsvajKBL-rS9Ph-49" style="edgeStyle=orthogonalEdgeStyle;rounded=0;orthogonalLoop=1;jettySize=auto;html=1;entryX=0.5;entryY=1;entryDx=0;entryDy=0;" parent="1" source="uYBO9HUsvajKBL-rS9Ph-51" target="uYBO9HUsvajKBL-rS9Ph-52" edge="1">
          <mxGeometry relative="1" as="geometry" />
        </mxCell>
        <mxCell id="uYBO9HUsvajKBL-rS9Ph-50" style="edgeStyle=orthogonalEdgeStyle;rounded=0;orthogonalLoop=1;jettySize=auto;html=1;entryX=0.5;entryY=0;entryDx=0;entryDy=0;" parent="1" source="uYBO9HUsvajKBL-rS9Ph-51" target="uYBO9HUsvajKBL-rS9Ph-54" edge="1">
          <mxGeometry relative="1" as="geometry" />
        </mxCell>
        <mxCell id="uYBO9HUsvajKBL-rS9Ph-71" style="edgeStyle=orthogonalEdgeStyle;rounded=0;orthogonalLoop=1;jettySize=auto;html=1;" parent="1" source="uYBO9HUsvajKBL-rS9Ph-51" edge="1">
          <mxGeometry relative="1" as="geometry">
            <mxPoint x="490" y="-380" as="targetPoint" />
          </mxGeometry>
        </mxCell>
        <mxCell id="uYBO9HUsvajKBL-rS9Ph-51" value="Team_Member:" style="rounded=0;whiteSpace=wrap;html=1;" parent="1" vertex="1">
          <mxGeometry x="530" y="-405" width="90" height="30" as="geometry" />
        </mxCell>
        <mxCell id="uYBO9HUsvajKBL-rS9Ph-52" value="TeamMemberID&amp;nbsp;" style="ellipse;whiteSpace=wrap;html=1;rounded=0;" parent="1" vertex="1">
          <mxGeometry x="545" y="-505" width="90" height="45" as="geometry" />
        </mxCell>
        <mxCell id="uYBO9HUsvajKBL-rS9Ph-53" value="TeamID&amp;nbsp;" style="ellipse;whiteSpace=wrap;html=1;rounded=0;" parent="1" vertex="1">
          <mxGeometry x="690" y="-412.5" width="100" height="45" as="geometry" />
        </mxCell>
        <mxCell id="uYBO9HUsvajKBL-rS9Ph-54" value="UserID&amp;nbsp;" style="ellipse;whiteSpace=wrap;html=1;rounded=0;" parent="1" vertex="1">
          <mxGeometry x="550" y="-335" width="80" height="45" as="geometry" />
        </mxCell>
        <mxCell id="uYBO9HUsvajKBL-rS9Ph-56" value="" style="endArrow=none;html=1;rounded=0;" parent="1" edge="1">
          <mxGeometry width="50" height="50" relative="1" as="geometry">
            <mxPoint x="550" y="-475" as="sourcePoint" />
            <mxPoint x="635" y="-475" as="targetPoint" />
          </mxGeometry>
        </mxCell>
        <mxCell id="uYBO9HUsvajKBL-rS9Ph-81" style="edgeStyle=orthogonalEdgeStyle;rounded=0;orthogonalLoop=1;jettySize=auto;html=1;" parent="1" source="uYBO9HUsvajKBL-rS9Ph-60" target="uYBO9HUsvajKBL-rS9Ph-29" edge="1">
          <mxGeometry relative="1" as="geometry" />
        </mxCell>
        <mxCell id="uYBO9HUsvajKBL-rS9Ph-60" value="do" style="rhombus;whiteSpace=wrap;html=1;" parent="1" vertex="1">
          <mxGeometry x="300" y="-505" width="80" height="80" as="geometry" />
        </mxCell>
        <mxCell id="uYBO9HUsvajKBL-rS9Ph-61" value="&lt;b&gt;1&lt;/b&gt;" style="text;html=1;strokeColor=none;fillColor=none;align=center;verticalAlign=middle;whiteSpace=wrap;rounded=0;" parent="1" vertex="1">
          <mxGeometry x="290" y="-535" width="60" height="30" as="geometry" />
        </mxCell>
        <mxCell id="uYBO9HUsvajKBL-rS9Ph-63" value="&lt;b&gt;m&lt;/b&gt;" style="text;html=1;strokeColor=none;fillColor=none;align=center;verticalAlign=middle;whiteSpace=wrap;rounded=0;" parent="1" vertex="1">
          <mxGeometry x="240" y="-497.5" width="60" height="30" as="geometry" />
        </mxCell>
        <mxCell id="uYBO9HUsvajKBL-rS9Ph-64" value="" style="endArrow=classic;html=1;rounded=0;" parent="1" edge="1">
          <mxGeometry width="50" height="50" relative="1" as="geometry">
            <mxPoint x="530" y="-400" as="sourcePoint" />
            <mxPoint x="450" y="-460" as="targetPoint" />
          </mxGeometry>
        </mxCell>
        <mxCell id="uYBO9HUsvajKBL-rS9Ph-66" value="" style="endArrow=classic;html=1;rounded=0;" parent="1" source="uYBO9HUsvajKBL-rS9Ph-2" target="uYBO9HUsvajKBL-rS9Ph-67" edge="1">
          <mxGeometry width="50" height="50" relative="1" as="geometry">
            <mxPoint x="370" y="-500" as="sourcePoint" />
            <mxPoint x="420" y="-500" as="targetPoint" />
          </mxGeometry>
        </mxCell>
        <mxCell id="uYBO9HUsvajKBL-rS9Ph-67" value="join" style="rhombus;whiteSpace=wrap;html=1;" parent="1" vertex="1">
          <mxGeometry x="400" y="-525" width="80" height="80" as="geometry" />
        </mxCell>
        <mxCell id="uYBO9HUsvajKBL-rS9Ph-68" value="&lt;b&gt;m&lt;/b&gt;" style="text;html=1;strokeColor=none;fillColor=none;align=center;verticalAlign=middle;whiteSpace=wrap;rounded=0;" parent="1" vertex="1">
          <mxGeometry x="370" y="-535" width="60" height="30" as="geometry" />
        </mxCell>
        <mxCell id="uYBO9HUsvajKBL-rS9Ph-69" value="&lt;b&gt;m&lt;/b&gt;" style="text;html=1;strokeColor=none;fillColor=none;align=center;verticalAlign=middle;whiteSpace=wrap;rounded=0;" parent="1" vertex="1">
          <mxGeometry x="430" y="-442.5" width="60" height="30" as="geometry" />
        </mxCell>
        <mxCell id="uYBO9HUsvajKBL-rS9Ph-72" value="" style="endArrow=classic;html=1;rounded=0;" parent="1" edge="1">
          <mxGeometry width="50" height="50" relative="1" as="geometry">
            <mxPoint x="499.5" y="-390" as="sourcePoint" />
            <mxPoint x="499.5" y="-260" as="targetPoint" />
          </mxGeometry>
        </mxCell>
        <mxCell id="uYBO9HUsvajKBL-rS9Ph-74" value="" style="endArrow=classic;html=1;rounded=0;" parent="1" edge="1">
          <mxGeometry width="50" height="50" relative="1" as="geometry">
            <mxPoint x="499.5" y="-120" as="sourcePoint" />
            <mxPoint x="499.5" y="-210" as="targetPoint" />
          </mxGeometry>
        </mxCell>
        <mxCell id="uYBO9HUsvajKBL-rS9Ph-75" value="assign" style="rhombus;whiteSpace=wrap;html=1;" parent="1" vertex="1">
          <mxGeometry x="460" y="-275" width="80" height="80" as="geometry" />
        </mxCell>
        <mxCell id="uYBO9HUsvajKBL-rS9Ph-76" value="&lt;b&gt;1&lt;/b&gt;" style="text;html=1;strokeColor=none;fillColor=none;align=center;verticalAlign=middle;whiteSpace=wrap;rounded=0;" parent="1" vertex="1">
          <mxGeometry x="455" y="-305" width="60" height="30" as="geometry" />
        </mxCell>
        <mxCell id="uYBO9HUsvajKBL-rS9Ph-79" value="&lt;b&gt;m&lt;/b&gt;" style="text;html=1;strokeColor=none;fillColor=none;align=center;verticalAlign=middle;whiteSpace=wrap;rounded=0;" parent="1" vertex="1">
          <mxGeometry x="445" y="-200" width="60" height="30" as="geometry" />
        </mxCell>
        <mxCell id="uYBO9HUsvajKBL-rS9Ph-80" value="" style="endArrow=classic;html=1;rounded=0;entryX=0.788;entryY=0.911;entryDx=0;entryDy=0;entryPerimeter=0;" parent="1" target="uYBO9HUsvajKBL-rS9Ph-21" edge="1">
          <mxGeometry width="50" height="50" relative="1" as="geometry">
            <mxPoint x="-90" y="-670" as="sourcePoint" />
            <mxPoint x="-40" y="-720" as="targetPoint" />
          </mxGeometry>
        </mxCell>
        <mxCell id="uYBO9HUsvajKBL-rS9Ph-84" style="edgeStyle=orthogonalEdgeStyle;rounded=0;orthogonalLoop=1;jettySize=auto;html=1;entryX=0.75;entryY=0;entryDx=0;entryDy=0;" parent="1" source="uYBO9HUsvajKBL-rS9Ph-82" target="uYBO9HUsvajKBL-rS9Ph-29" edge="1">
          <mxGeometry relative="1" as="geometry" />
        </mxCell>
        <mxCell id="uYBO9HUsvajKBL-rS9Ph-82" value="assign" style="rhombus;whiteSpace=wrap;html=1;rounded=0;" parent="1" vertex="1">
          <mxGeometry x="-100" y="-585" width="80" height="80" as="geometry" />
        </mxCell>
        <mxCell id="uYBO9HUsvajKBL-rS9Ph-85" value="&lt;b&gt;1&lt;/b&gt;" style="text;html=1;strokeColor=none;fillColor=none;align=center;verticalAlign=middle;whiteSpace=wrap;rounded=0;" parent="1" vertex="1">
          <mxGeometry x="-110" y="-600" width="60" height="30" as="geometry" />
        </mxCell>
        <mxCell id="uYBO9HUsvajKBL-rS9Ph-86" value="&lt;b&gt;m&lt;/b&gt;" style="text;html=1;strokeColor=none;fillColor=none;align=center;verticalAlign=middle;whiteSpace=wrap;rounded=0;" parent="1" vertex="1">
          <mxGeometry x="-110" y="-510" width="60" height="30" as="geometry" />
        </mxCell>
        <mxCell id="uYBO9HUsvajKBL-rS9Ph-89" value="make" style="rhombus;whiteSpace=wrap;html=1;" parent="1" vertex="1">
          <mxGeometry x="90" y="-687" width="80" height="80" as="geometry" />
        </mxCell>
        <mxCell id="uYBO9HUsvajKBL-rS9Ph-90" value="&lt;b&gt;m&lt;/b&gt;" style="text;html=1;strokeColor=none;fillColor=none;align=center;verticalAlign=middle;whiteSpace=wrap;rounded=0;" parent="1" vertex="1">
          <mxGeometry x="160" y="-677.5" width="60" height="30" as="geometry" />
        </mxCell>
        <mxCell id="uYBO9HUsvajKBL-rS9Ph-91" value="&lt;b&gt;m&lt;/b&gt;" style="text;html=1;strokeColor=none;fillColor=none;align=center;verticalAlign=middle;whiteSpace=wrap;rounded=0;" parent="1" vertex="1">
          <mxGeometry x="50" y="-677.5" width="60" height="30" as="geometry" />
        </mxCell>
        <mxCell id="uYBO9HUsvajKBL-rS9Ph-92" value="" style="endArrow=none;html=1;rounded=0;" parent="1" edge="1">
          <mxGeometry width="50" height="50" relative="1" as="geometry">
            <mxPoint x="-185" y="-335" as="sourcePoint" />
            <mxPoint x="-100" y="-335" as="targetPoint" />
          </mxGeometry>
        </mxCell>
      </root>
    </mxGraphModel>
  </diagram>
</mxfile>
